<svg width="8" height="15" viewBox="0 0 8 15" fill="none" xmlns="http://www.w3.org/2000/svg">
<path d="M1.29199 14.563C1.05852 14.5634 0.832265 14.4814 0.652493 14.3311C0.551314 14.2464 0.467677 14.1424 0.406373 14.0251C0.345069 13.9078 0.307302 13.7794 0.295236 13.6473C0.283169 13.5152 0.29704 13.3821 0.336055 13.2554C0.375069 13.1287 0.438458 13.0111 0.522594 12.9092L4.9991 7.50416L0.68247 2.08904C0.599469 1.98589 0.537486 1.8672 0.500083 1.7398C0.462681 1.6124 0.450596 1.4788 0.464525 1.34667C0.478453 1.21454 0.518119 1.08649 0.581243 0.969881C0.644368 0.853272 0.729706 0.750403 0.832353 0.667187C0.935738 0.575386 1.05681 0.506141 1.18797 0.463799C1.31913 0.421457 1.45755 0.406933 1.59453 0.421136C1.73152 0.435339 1.86412 0.477964 1.984 0.546336C2.10389 0.614707 2.20848 0.707349 2.29121 0.818448L7.11744 6.86887C7.26441 7.0493 7.34475 7.27563 7.34475 7.5092C7.34475 7.74278 7.26441 7.9691 7.11744 8.14954L2.12135 14.2C2.02111 14.322 1.89377 14.4185 1.74968 14.4815C1.60558 14.5446 1.44878 14.5725 1.29199 14.563Z" fill="white"/>
</svg>
