<svg width="8" height="15" viewBox="0 0 8 15" fill="none" xmlns="http://www.w3.org/2000/svg">
<path d="M6.32959 0.445315C6.56306 0.444856 6.78932 0.526914 6.96909 0.677248C7.07027 0.761903 7.15391 0.86587 7.21521 0.983195C7.27651 1.10052 7.31428 1.2289 7.32635 1.36097C7.33841 1.49305 7.32454 1.62623 7.28553 1.75289C7.24651 1.87955 7.18313 1.9972 7.09899 2.0991L2.62248 7.50414L6.93911 12.9193C7.02211 13.0224 7.0841 13.1411 7.1215 13.2685C7.1589 13.3959 7.17099 13.5295 7.15706 13.6616C7.14313 13.7938 7.10346 13.9218 7.04034 14.0384C6.97721 14.155 6.89188 14.2579 6.78923 14.3411C6.68584 14.4329 6.56477 14.5022 6.43361 14.5445C6.30245 14.5868 6.16404 14.6014 6.02705 14.5872C5.89006 14.573 5.75747 14.5303 5.63758 14.462C5.51769 14.3936 5.4131 14.301 5.33037 14.1899L0.50414 8.13943C0.357173 7.959 0.276829 7.73267 0.276829 7.4991C0.276829 7.26552 0.357173 7.0392 0.50414 6.85876L5.50024 0.808342C5.60048 0.686307 5.72781 0.589839 5.87191 0.526765C6.016 0.463691 6.17281 0.435785 6.32959 0.445315Z" fill="white"/>
</svg>
