<svg width="17" height="15" viewBox="0 0 17 15" fill="none" xmlns="http://www.w3.org/2000/svg">
<path d="M1.87256 8L13.7326 8L10.1026 12.36C10.0185 12.4611 9.95521 12.5778 9.91625 12.7034C9.8773 12.829 9.86347 12.961 9.87554 13.0919C9.89992 13.3564 10.0283 13.6003 10.2326 13.77C10.4368 13.9397 10.7001 14.0214 10.9645 13.997C11.2289 13.9726 11.4728 13.8442 11.6426 13.64L16.6426 7.64C16.6762 7.59228 16.7063 7.54214 16.7326 7.49C16.7326 7.44 16.7826 7.41 16.8026 7.36C16.8479 7.24534 16.8716 7.12329 16.8726 7C16.8716 6.87671 16.8479 6.75466 16.8026 6.64C16.8026 6.59 16.7526 6.56 16.7326 6.51C16.7063 6.45786 16.6762 6.40773 16.6426 6.36L11.6426 0.360002C11.5485 0.247119 11.4308 0.156339 11.2977 0.0941181C11.1646 0.0318971 11.0195 -0.000236672 10.8726 1.91036e-06C10.6389 -0.000454603 10.4125 0.0809208 10.2326 0.230002C10.1313 0.313951 10.0476 0.417051 9.98625 0.533399C9.92489 0.649746 9.8871 0.777054 9.87502 0.908031C9.86295 1.03901 9.87683 1.17108 9.91587 1.29668C9.95492 1.42229 10.0184 1.53895 10.1026 1.64L13.7326 6L1.87256 6C1.60734 6 1.35299 6.10536 1.16545 6.2929C0.977916 6.48043 0.872559 6.73479 0.872559 7C0.872559 7.26522 0.977916 7.51957 1.16545 7.70711C1.35299 7.89464 1.60734 8 1.87256 8Z" fill="#444444"/>
</svg>
